Coordinates
version=1
nRows=9
nColumns=36
inDegrees=yes

Units are S.I. units (second, meters, Newtons, ...)
If the header above contains a line with 'inDegrees', this indicates whether rotational values are in degrees (yes) or radians (no).

endheader
time	pelvis_tilt	pelvis_list	pelvis_rotation	pelvis_tx	pelvis_ty	pelvis_tz	hip_flexion_r	hip_adduction_r	hip_rotation_r	knee_angle_r	knee_angle_r_beta	ankle_angle_r	subtalar_angle_r	mtp_angle_r	hip_flexion_l	hip_adduction_l	hip_rotation_l	knee_angle_l	knee_angle_l_beta	ankle_angle_l	subtalar_angle_l	mtp_angle_l	lumbar_extension	lumbar_bending	lumbar_rotation	arm_flex_r	arm_add_r	arm_rot_r	elbow_flex_r	pro_sup_r	arm_flex_l	arm_add_l	arm_rot_l	elbow_flex_l	pro_sup_l
      0.00000000	     -0.59184238	     -1.61787549	      1.07090586	     -0.89166925	      1.24589099	     -0.08143021	     -1.64338564	      1.49279911	     -0.16580728	      9.09251991	      0.15869441	      8.66548234	    -15.41346293	     -6.21238531	     -2.53730884	     -2.40391172	      3.26573907	      6.77115321	      0.11817892	     13.27834548	     -4.25039721	     -6.21238531	     -7.08054399	      3.63596359	     -0.76165099	     -1.99827752	     -8.12712481	     16.57023899	     23.43161851	     72.23297230	      0.87147398	     -5.58012105	     21.29695437	     33.65041268	     71.51695613
      0.00416670	     -0.93576280	     -1.59784014	      1.19581833	     -0.89090263	      1.24776846	     -0.08161249	     -1.06179334	      1.52628413	     -0.25737286	      9.75668158	      0.17028622	     11.40586281	    -12.78390838	     -6.85094511	     -1.82799910	     -1.77835955	      5.23445240	      7.15363298	      0.12485445	     12.58467664	     -5.03334539	     -6.85094511	     -6.71585044	      3.90246462	     -0.92440313	     -2.17477920	     -6.93316777	     11.05269049	     24.66721424	     77.68118489	      0.24484178	     -4.42224782	     15.89772059	     34.21013422	     76.69997102
      0.00833330	     -0.81737344	     -1.12630286	      1.01838530	     -0.89223276	      1.24709336	     -0.08127681	     -1.38112057	      0.92416579	     -0.79459573	      9.35644085	      0.16330070	     11.89634543	    -12.24567788	     -6.90838064	     -2.10081766	     -1.20567345	      5.57961058	      7.22765381	      0.12614636	     12.32292085	     -5.26798491	     -6.90838064	     -7.18058254	      3.30839066	     -0.56066044	     -1.27064304	     -5.79949874	      9.86894548	     24.37059311	     76.50159596	      0.52505723	     -4.59113003	     15.47498707	     34.56659871	     75.72345459
      0.01250000	      0.43740685	     -0.97129744	      0.92009086	     -0.89254633	      1.24923435	     -0.08085833	     -2.83730717	      0.65982034	     -1.21015351	      9.12271520	      0.15922142	     12.51052332	    -11.17895685	     -7.00135418	     -3.90433741	     -0.97771949	      6.15536198	      6.53689784	      0.11409039	     11.96746551	     -5.95629349	     -7.00135418	     -8.98457214	      3.16095173	      0.11785952	      0.09663890	     -4.76041561	      9.34429695	     25.20273691	     75.26971802	      0.65319829	     -4.66612851	     16.25719719	     35.12601976	     74.77703554
      0.01666670	      1.22545865	     -0.88419831	      0.94496414	     -0.89392844	      1.25043476	     -0.08112774	     -3.75383867	      0.56836546	     -1.73747471	      8.88554699	      0.15508205	     12.83669009	    -10.44098594	     -7.07850743	     -4.98782204	     -0.84058261	      6.58839018	      6.05059740	      0.10560285	     11.70382744	     -6.34219297	     -7.07850743	    -10.36244659	      3.16178145	      1.19517075	      1.19924320	     -4.36855471	     10.74973497	     27.51888126	     75.74484491	      1.05879833	     -5.10851832	     20.09154627	     36.30168651	     75.70529824
      0.02083330	      1.94600759	     -0.81086563	      0.78273777	     -0.88781623	      1.24447093	     -0.08499368	     -4.86140406	      0.32741909	     -1.94424726	      8.63069223	      0.15063400	     12.98670149	     -9.96505110	     -7.08094870	     -6.06312342	     -0.68846565	      6.85025650	      5.73194207	      0.10004126	     11.90161971	     -6.80022650	     -7.08094870	    -10.83611149	      3.42139019	      1.73692187	      1.91113619	     -4.28558314	     12.20340641	     28.94860500	     76.25239407	      0.66695079	     -4.81587233	     22.48768482	     36.56851412	     76.40314142
      0.02500000	      2.23951299	     -0.80842808	      0.71511361	     -0.88892456	      1.24529851	     -0.08549786	     -5.45495332	      0.11723627	     -2.47597415	      8.53166932	      0.14890572	     13.19249572	     -9.65605951	     -7.11708260	     -6.55671439	     -0.59056057	      7.23997502	      5.47982614	      0.09564101	     12.08539382	     -7.46026541	     -7.11708260	    -10.82210443	      3.70204722	      2.07436258	      2.41581029	     -4.51591636	     14.58014571	     30.22577097	     77.23544784	      0.80835911	     -4.66829750	     25.05839226	     36.25395490	     77.64311114
      0.02916670	      2.54991590	     -0.77523515	      0.53450077	     -0.88848374	      1.24685085	     -0.08478733	     -5.99868209	     -0.05785545	     -2.71605011	      8.36626768	      0.14601892	     13.18838464	     -9.52538565	     -7.20235024	     -7.07711361	     -0.45103565	      7.63691714	      5.37367519	      0.09378833	     12.09184224	     -8.14314743	     -7.20235024	    -10.88267366	      3.90042976	      2.15802840	      2.83988815	     -4.65492870	     16.25227889	     31.00234954	     75.79213028	      0.77218419	     -4.45408975	     26.23647379	     35.93915365	     76.37389155
      0.03333330	      2.58281219	     -0.73652885	      0.43512929	     -0.88345384	      1.24732233	     -0.08041756	     -6.22671407	     -0.02650680	     -2.72258307	      8.25777266	      0.14412532	     13.22617738	     -9.48642568	     -7.20273635	     -7.24291850	     -0.49814633	      7.68526241	      5.41724574	      0.09454877	     12.14669462	     -8.20270693	     -7.20273635	    -10.58567143	      3.89566371	      2.29249069	      3.00202774	     -4.48495278	     16.32307171	     31.15021167	     75.81857480	      0.56454114	     -4.41096408	     26.30694782	     35.89397974	     76.40505786
